<?xml version="1.0" encoding="utf-8"?>
<svg version="1.1" xmlns:xlink="http://www.w3.org/1999/xlink" width="50px" height="50px" xmlns="http://www.w3.org/2000/svg">
  <g transform="matrix(1 0 0 1 -300 -225 )">
    <path d="M 43.25980392156863 38.817401960784316  C 43.83169934640523 38.24550653594771  44.11764705882353 37.56127450980392  44.11764705882353 36.76470588235294  C 44.11764705882353 35.94771241830065  43.83169934640523 35.253267973856204  43.25980392156863 34.681372549019606  L 36.88725490196079 28.308823529411764  C 36.31535947712419 27.736928104575163  35.62091503267974 27.450980392156865  34.80392156862745 27.450980392156865  C 33.94607843137255 27.450980392156865  33.21078431372549 27.77777777777778  32.59803921568628 28.431372549019606  C 32.65931372549019 28.49264705882353  32.85334967320262 28.68157679738562  33.18014705882353 28.99816176470588  C 33.50694444444445 29.314746732026144  33.7265114379085 29.534313725490197  33.838848039215684 29.65686274509804  C 33.95118464052288 29.77941176470588  34.10437091503268 29.9734477124183  34.2984068627451 30.238970588235293  C 34.49244281045752 30.504493464052285  34.62520424836602 30.764910130718953  34.69669117647059 31.020220588235293  C 34.76817810457517 31.27553104575163  34.80392156862745 31.556372549019606  34.80392156862745 31.862745098039213  C 34.80392156862745 32.6797385620915  34.51797385620915 33.374183006535944  33.94607843137255 33.94607843137255  C 33.37418300653595 34.51797385620915  32.6797385620915 34.80392156862745  31.862745098039213 34.80392156862745  C 31.556372549019606 34.80392156862745  31.275531045751638 34.76817810457516  31.020220588235293 34.69669117647059  C 30.76491013071896 34.62520424836601  30.504493464052292 34.49244281045751  30.238970588235293 34.298406862745104  C 29.973447712418306 34.104370915032675  29.779411764705888 33.95118464052287  29.65686274509804 33.838848039215684  C 29.5343137254902 33.72651143790849  29.314746732026148 33.50694444444444  28.99816176470588 33.18014705882353  C 28.68157679738562 32.853349673202615  28.49264705882353 32.65931372549019  28.431372549019606 32.59803921568628  C 27.75735294117647 33.23120915032679  27.420343137254903 33.9767156862745  27.420343137254903 34.83455882352941  C 27.420343137254903 35.651552287581694  27.706290849673206 36.345996732026144  28.278186274509803 36.91789215686274  L 34.58946078431372 43.25980392156863  C 35.14093137254902 43.81127450980392  35.83537581699346 44.08700980392157  36.67279411764706 44.08700980392157  C 37.489787581699346 44.08700980392157  38.184232026143796 43.82148692810458  38.756127450980394 43.29044117647059  L 43.25980392156863 38.817401960784316  Z M 21.568627450980394 17.401960784313726  C 22.24264705882353 16.7687908496732  22.579656862745097 16.02328431372549  22.579656862745097 15.16544117647059  C 22.579656862745097 14.348447712418299  22.293709150326798 13.654003267973852  21.721813725490197 13.082107843137253  L 15.410539215686276 6.740196078431371  C 14.838643790849673 6.1683006535947715  14.144199346405228 5.882352941176472  13.32720588235294 5.882352941176472  C 12.530637254901961 5.882352941176472  11.836192810457517 6.158088235294118  11.243872549019608 6.70955882352941  L 6.740196078431373 11.182598039215685  C 6.1683006535947715 11.754493464052285  5.88235294117647 12.438725490196079  5.88235294117647 13.235294117647056  C 5.88235294117647 14.052287581699341  6.1683006535947715 14.746732026143789  6.740196078431373 15.318627450980394  L 13.112745098039216 21.691176470588236  C 13.664215686274511 22.24264705882353  14.358660130718956 22.518382352941174  15.196078431372548 22.518382352941174  C 16.05392156862745 22.518382352941174  16.78921568627451 22.201797385620914  17.401960784313726 21.568627450980394  C 17.340686274509803 21.507352941176467  17.14665032679739 21.31842320261438  16.81985294117647 21.00183823529412  C 16.493055555555557 20.685253267973856  16.273488562091508 20.465686274509803  16.161151960784316 20.34313725490196  C 16.048815359477125 20.22058823529412  15.895629084967322 20.0265522875817  15.701593137254902 19.761029411764707  C 15.507557189542487 19.495506535947708  15.374795751633988 19.23508986928104  15.303308823529413 18.979779411764707  C 15.231821895424838 18.724468954248362  15.196078431372548 18.443627450980394  15.196078431372548 18.137254901960787  C 15.196078431372548 17.320261437908496  15.48202614379085 16.62581699346405  16.05392156862745 16.053921568627448  C 16.625816993464053 15.482026143790845  17.3202614379085 15.19607843137255  18.137254901960784 15.19607843137255  C 18.443627450980394 15.19607843137255  18.72446895424837 15.23182189542483  18.979779411764707 15.30330882352941  C 19.235089869281047 15.374795751633986  19.49550653594771 15.507557189542482  19.761029411764707 15.701593137254905  C 20.0265522875817 15.895629084967316  20.22058823529412 16.04881535947712  20.34313725490196 16.161151960784316  C 20.465686274509803 16.273488562091497  20.685253267973856 16.493055555555554  21.00183823529412 16.81985294117647  C 21.31842320261438 17.14665032679738  21.50735294117647 17.340686274509803  21.568627450980394 17.401960784313726  Z M 47.42647058823529 30.514705882352942  C 49.1421568627451 32.23039215686274  50 34.31372549019608  50 36.76470588235294  C 50 39.21568627450981  49.13194444444445 41.28880718954249  47.39583333333333 42.98406862745098  L 42.8921568627451 47.45710784313725  C 41.196895424836605 49.15236928104575  39.12377450980392 50  36.67279411764706 50  C 34.20138888888889 50  32.11805555555556 49.13194444444445  30.422794117647058 47.39583333333333  L 24.11151960784314 41.05392156862745  C 22.416258169934643 39.35866013071896  21.568627450980394 37.28553921568628  21.568627450980394 34.83455882352941  C 21.568627450980394 32.32230392156863  22.46732026143791 30.187908496732025  24.264705882352942 28.431372549019606  L 21.568627450980394 25.735294117647058  C 19.812091503267975 27.532679738562095  17.687908496732028 28.431372549019606  15.196078431372548 28.431372549019606  C 12.745098039215685 28.431372549019606  10.661764705882353 27.573529411764707  8.946078431372548 25.8578431372549  L 2.5735294117647056 19.485294117647058  C 0.857843137254902 17.76960784313725  0 15.686274509803921  0 13.235294117647056  C 0 10.784313725490197  0.8680555555555555 8.711192810457513  2.604166666666667 7.015931372549017  L 7.107843137254902 2.542892156862747  C 8.803104575163399 0.8476307189542454  10.876225490196079 0  13.32720588235294 0  C 15.798611111111112 0  17.881944444444446 0.8680555555555525  19.577205882352942 2.6041666666666687  L 25.888480392156865 8.94607843137255  C 27.58374183006536 10.64133986928104  28.431372549019606 12.714460784313724  28.431372549019606 15.16544117647059  C 28.431372549019606 17.67769607843137  27.532679738562095 19.812091503267972  25.735294117647058 21.568627450980394  L 28.431372549019606 24.264705882352942  C 30.187908496732028 22.467320261437905  32.31209150326798 21.568627450980387  34.80392156862745 21.568627450980394  C 37.254901960784316 21.568627450980387  39.338235294117645 22.426470588235293  41.05392156862745 24.142156862745097  L 47.42647058823529 30.514705882352942  Z " fill-rule="nonzero" fill="#ffffff" stroke="none" transform="matrix(1 0 0 1 300 225 )" />
  </g>
</svg>