<?xml version="1.0" encoding="utf-8"?>
<svg version="1.1" xmlns:xlink="http://www.w3.org/1999/xlink" width="29px" height="29px" xmlns="http://www.w3.org/2000/svg">
  <g transform="matrix(1 0 0 1 -1490 -367 )">
    <path d="M 20.714285714285715 6.214285714285714  L 27.44642857142857 6.214285714285714  C 27.87797619047619 6.214285714285714  28.244791666666668 6.36532738095238  28.546875 6.667410714285714  C 28.848958333333336 6.969494047619044  29 7.336309523809524  29 7.767857142857144  L 29 27.44642857142857  C 29 27.87797619047619  28.848958333333336 28.244791666666664  28.546875 28.546875  C 28.244791666666668 28.848958333333336  27.87797619047619 29  27.44642857142857 29  L 11.910714285714285 29  C 11.479166666666668 29  11.112351190476192 28.848958333333336  10.810267857142858 28.546875  C 10.508184523809526 28.244791666666664  10.357142857142858 27.87797619047619  10.357142857142858 27.44642857142857  L 10.357142857142858 22.785714285714285  L 1.5535714285714284 22.785714285714285  C 1.1220238095238098 22.785714285714285  0.7552083333333334 22.63467261904762  0.453125 22.332589285714285  C 0.15104166666666666 22.030505952380953  0 21.663690476190478  0 21.232142857142858  L 0 10.357142857142856  C 0 9.925595238095239  0.10788690476190475 9.450892857142856  0.3236607142857143 8.933035714285715  C 0.5394345238095238 8.415178571428571  0.7983630952380953 8.005208333333332  1.1004464285714284 7.703125  L 7.703125 1.1004464285714295  C 8.005208333333334 0.798363095238094  8.415178571428573 0.5394345238095235  8.933035714285715 0.32366071428571475  C 9.450892857142858 0.10788690476190599  9.925595238095239 0  10.357142857142858 0  L 17.089285714285715 0  C 17.520833333333336 0  17.88764880952381 0.15104166666666774  18.189732142857146 0.453125  C 18.491815476190478 0.7552083333333323  18.642857142857146 1.1220238095238089  18.642857142857146 1.5535714285714295  L 18.642857142857146 6.861607142857144  C 19.3764880952381 6.430059523809524  20.066964285714285 6.214285714285714  20.714285714285715 6.214285714285714  Z M 18.642857142857146 14.5  L 18.642857142857146 9.661272321428571  L 13.804129464285715 14.5  L 18.642857142857146 14.5  Z M 8.285714285714285 8.285714285714285  L 8.285714285714285 3.446986607142856  L 3.4469866071428568 8.285714285714285  L 8.285714285714285 8.285714285714285  Z M 10.680803571428573 15.147321428571429  C 10.896577380952381 14.629464285714285  11.155505952380953 14.219494047619047  11.457589285714285 13.917410714285715  L 16.57142857142857 8.803571428571429  L 16.57142857142857 2.0714285714285703  L 10.357142857142858 2.0714285714285703  L 10.357142857142858 8.803571428571429  C 10.357142857142858 9.235119047619044  10.206101190476192 9.601934523809524  9.904017857142858 9.904017857142856  C 9.601934523809526 10.206101190476188  9.23511904761905 10.357142857142856  8.803571428571427 10.357142857142856  L 2 10.357142857142856  L 2 20.714285714285715  L 10.357142857142858 20.714285714285715  L 10.357142857142858 16.57142857142857  C 10.357142857142858 16.139880952380953  10.465029761904763 15.665178571428571  10.680803571428573 15.147321428571429  Z M 13 27  L 27 27  L 27 8.285714285714285  L 20.714285714285715 8.285714285714285  L 20.714285714285715 15.01785714285714  C 20.714285714285715 15.449404761904761  20.56324404761905 15.816220238095235  20.261160714285715 16.11830357142857  C 19.959077380952383 16.420386904761905  19.592261904761905 16.57142857142857  19.160714285714285 16.57142857142857  L 13 16.57142857142857  L 13 27  Z " fill-rule="nonzero" fill="#ffffff" stroke="none" transform="matrix(1 0 0 1 1490 367 )" />
  </g>
</svg>