<?xml version="1.0" encoding="utf-8"?>
<svg version="1.1" xmlns:xlink="http://www.w3.org/1999/xlink" width="65px" height="60px" xmlns="http://www.w3.org/2000/svg">
  <g transform="matrix(1 0 0 1 -152 -1525 )">
    <path d="M 49.2578125 54.2578125  C 49.75260416666667 53.763020833333336  50 53.177083333333336  50 52.5  C 50 51.822916666666664  49.75260416666667 51.236979166666664  49.2578125 50.7421875  C 48.763020833333336 50.247395833333336  48.17708333333334 50  47.5 50  C 46.822916666666664 50  46.23697916666667 50.247395833333336  45.7421875 50.7421875  C 45.24739583333334 51.236979166666664  45 51.822916666666664  45 52.5  C 45 53.177083333333336  45.24739583333334 53.763020833333336  45.7421875 54.2578125  C 46.23697916666667 54.752604166666664  46.822916666666664 55  47.5 55  C 48.17708333333334 55  48.763020833333336 54.752604166666664  49.2578125 54.2578125  Z M 59.2578125 54.2578125  C 59.752604166666664 53.763020833333336  60 53.177083333333336  60 52.5  C 60 51.822916666666664  59.752604166666664 51.236979166666664  59.2578125 50.7421875  C 58.76302083333334 50.247395833333336  58.177083333333336 50  57.5 50  C 56.822916666666664 50  56.23697916666667 50.247395833333336  55.7421875 50.7421875  C 55.24739583333334 51.236979166666664  55 51.822916666666664  55 52.5  C 55 53.177083333333336  55.24739583333334 53.763020833333336  55.7421875 54.2578125  C 56.23697916666667 54.752604166666664  56.822916666666664 55  57.5 55  C 58.177083333333336 55  58.76302083333334 54.752604166666664  59.2578125 54.2578125  Z M 63.90625 41.09374999999999  C 64.63541666666667 41.82291666666666  65 42.708333333333336  65 43.75000000000001  L 65 56.25  C 65 57.29166666666667  64.63541666666667 58.17708333333333  63.90625 58.90625  C 63.17708333333334 59.63541666666667  62.29166666666668 60  61.25 60  L 3.75 60  C 2.7083333333333335 60  1.822916666666667 59.63541666666667  1.09375 58.90625  C 0.36458333333333326 58.17708333333333  0 57.29166666666667  0 56.25  L 0 43.75000000000001  C 0 42.708333333333336  0.36458333333333326 41.82291666666666  1.09375 41.09374999999999  C 1.822916666666667 40.364583333333336  2.7083333333333335 40.00000000000001  3.75 40  L 21.9140625 40  L 27.1875 45.3125  C 28.697916666666668 46.77083333333333  30.46875 47.5  32.5 47.5  C 34.53125 47.5  36.302083333333336 46.77083333333333  37.8125 45.3125  L 43.125 40  L 61.25 40  C 62.29166666666668 40.00000000000001  63.17708333333334 40.364583333333336  63.90625 41.09374999999999  Z M 50 20  C 51.09375 20.000000000000004  51.86197916666667 20.5078125  52.3046875 21.523437500000004  C 52.74739583333334 22.591145833333332  52.56510416666667 23.502604166666664  51.7578125 24.2578125  L 34.2578125 41.75781250000001  C 33.7890625 42.252604166666664  33.203125 42.49999999999999  32.5 42.49999999999999  C 31.796875 42.49999999999999  31.2109375 42.252604166666664  30.7421875 41.75781250000001  L 13.2421875 24.2578125  C 12.434895833333334 23.502604166666664  12.252604166666668 22.591145833333332  12.6953125 21.523437500000004  C 13.138020833333336 20.5078125  13.90625 20.000000000000004  15 20  L 25 20  L 25 2.499999999999998  C 25 1.8229166666666585  25.247395833333336 1.2369791666666585  25.7421875 0.7421874999999978  C 26.236979166666668 0.24739583333333703  26.822916666666668 0  27.5 0  L 37.5 0  C 38.177083333333336 0  38.763020833333336 0.24739583333333703  39.2578125 0.7421874999999978  C 39.75260416666667 1.2369791666666585  40 1.8229166666666585  40 2.499999999999998  L 40 20  L 50 20  Z " fill-rule="nonzero" fill="#ffffff" stroke="none" transform="matrix(1 0 0 1 152 1525 )" />
  </g>
</svg>