<?xml version="1.0" encoding="utf-8"?>
<svg version="1.1" xmlns:xlink="http://www.w3.org/1999/xlink" width="92px" height="110px" xmlns="http://www.w3.org/2000/svg">
  <g transform="matrix(1 0 0 1 -402 -192 )">
    <path d="M 91.38906250000001 79.52799479166666  C 91.79635416666667 83.1325954861111  92 86.96397569444444  92 91.02213541666667  C 92 96.22612847222223  90.50260416666667 100.69010416666667  87.5078125 104.4140625  C 84.51302083333334 108.13802083333333  80.90729166666668 110  76.690625 110  L 15.309375000000001 110  C 11.092708333333334 110  7.486979166666668 108.13802083333333  4.492187500000001 104.4140625  C 1.4973958333333337 100.69010416666667  0 96.22612847222223  0 91.02213541666667  C 0 86.96397569444444  0.2036458333333338 83.1325954861111  0.6109375000000006 79.52799479166666  C 1.0182291666666672 75.9233940972222  1.7729166666666671 72.294921875  2.8750000000000004 68.642578125  C 3.9770833333333346 64.990234375  5.378645833333334 61.863064236111114  7.0796874999999995 59.26106770833334  C 8.780729166666667 56.65907118055554  11.0328125 54.53450520833333  13.8359375 52.88736979166667  C 16.639062499999998 51.240234375  19.861458333333335 50.41666666666667  23.503125 50.41666666666667  C 29.780208333333334 56.52777777777777  37.27916666666667 59.58333333333334  46 59.58333333333334  C 54.720833333333346 59.58333333333334  62.21979166666667 56.52777777777777  68.496875 50.41666666666667  C 72.13854166666667 50.41666666666667  75.36093749999999 51.240234375  78.1640625 52.88736979166667  C 80.96718750000001 54.53450520833333  83.21927083333334 56.65907118055554  84.92031250000001 59.26106770833334  C 86.62135416666668 61.863064236111114  88.02291666666667 64.990234375  89.125 68.642578125  C 90.22708333333334 72.294921875  90.98177083333334 75.9233940972222  91.38906250000001 79.52799479166666  Z M 65.51406250000001 8.056640625  C 70.90468750000001 13.427734375  73.60000000000001 19.90885416666667  73.60000000000001 27.5  C 73.60000000000001 35.09114583333333  70.90468750000001 41.572265625  65.51406250000001 46.943359375  C 60.1234375 52.314453125  53.61875 55  46 55  C 38.38125 55  31.876562500000002 52.314453125  26.485937500000002 46.943359375  C 21.095312500000002 41.572265625  18.400000000000002 35.09114583333333  18.400000000000002 27.5  C 18.400000000000002 19.90885416666667  21.095312500000002 13.427734375  26.485937500000002 8.056640625  C 31.876562500000002 2.685546875  38.38125 0  46 0  C 53.61875 0  60.1234375 2.685546875  65.51406250000001 8.056640625  Z " fill-rule="nonzero" fill="#000000" stroke="none" transform="matrix(1 0 0 1 402 192 )" />
  </g>
</svg>