<?xml version="1.0" encoding="utf-8"?>
<svg version="1.1" xmlns:xlink="http://www.w3.org/1999/xlink" width="65px" height="65px" xmlns="http://www.w3.org/2000/svg">
  <g transform="matrix(1 0 0 1 -152 -1250 )">
    <path d="M 37.53580729166667 16.630859375  C 37.78971354166667 16.884765625  37.91666666666667 17.20920138888888  38 17.604166666666668  L 38 36.5625  C 37.91666666666667 36.95746527777777  37.78971354166667 37.281901041666664  37.53580729166667 37.535807291666664  C 37.28190104166667 37.789713541666664  36.95746527777778 37.916666666666664  36.5625 38  L 23.020833333333336 38  C 22.62586805555556 37.916666666666664  22.301432291666664 37.789713541666664  22.047526041666664 37.535807291666664  C 21.793619791666664 37.281901041666664  21.666666666666664 36.95746527777777  21.666666666666664 36.5625  L 21.666666666666664 33.854166666666664  C 21.666666666666664 33.459201388888886  21.793619791666664 33.134765625  22.047526041666664 32.880859375  C 22.301432291666664 32.626953125  22.62586805555556 32.5  23.020833333333336 32.5  L 32 32.5  L 32 17.604166666666668  C 32.5 17.20920138888888  32.626953125 16.884765625  32.880859375 16.630859375  C 33.13476562500001 16.376953125  33.45920138888889 16.25  33.85416666666667 16.25  L 36.5625 16.25  C 36.95746527777778 16.25  37.28190104166667 16.376953125  37.53580729166667 16.630859375  Z M 52.431640625 44.052734375  C 54.49110243055556 40.52625868055555  55.52083333333333 36.67534722222223  55.52083333333333 32.5  C 55.52083333333333 28.324652777777775  54.49110243055556 24.473741319444443  52.431640625 20.947265625  C 50.37217881944445 17.42078993055555  47.57921006944445 14.62782118055555  44.052734375 12.568359375  C 40.52625868055556 10.508897569444443  36.67534722222223 9.47916666666667  32.5 9.47916666666667  C 28.32465277777778 9.47916666666667  24.473741319444446 10.508897569444443  20.947265625 12.568359375  C 17.420789930555557 14.62782118055555  14.627821180555557 17.42078993055555  12.568359375 20.947265625  C 10.508897569444445 24.473741319444443  9.479166666666668 28.324652777777775  9.479166666666668 32.5  C 9.479166666666668 36.67534722222223  10.508897569444445 40.52625868055555  12.568359375 44.052734375  C 14.627821180555557 47.579210069444436  17.420789930555557 50.37217881944444  20.947265625 52.431640625  C 24.473741319444446 54.49110243055556  28.32465277777778 55.52083333333333  32.5 55.52083333333333  C 36.67534722222223 55.52083333333333  40.52625868055556 54.49110243055556  44.052734375 52.431640625  C 47.57921006944445 50.37217881944444  50.37217881944445 47.579210069444436  52.431640625 44.052734375  Z M 60.64127604166667 16.1865234375  C 63.54709201388888 21.16590711805555  65 26.60373263888888  65 32.5  C 65 38.396267361111114  63.54709201388888 43.834092881944436  60.64127604166667 48.8134765625  C 57.73546006944445 53.79286024305556  53.79286024305556 57.73546006944444  48.8134765625 60.64127604166667  C 43.83409288194445 63.54709201388889  38.396267361111114 65  32.5 65  C 26.60373263888889 65  21.165907118055557 63.54709201388889  16.1865234375 60.64127604166667  C 11.207139756944445 57.73546006944444  7.264539930555556 53.79286024305556  4.358723958333334 48.8134765625  C 1.452907986111111 43.834092881944436  0 38.396267361111114  0 32.5  C 0 26.60373263888888  1.452907986111111 21.16590711805555  4.358723958333334 16.1865234375  C 7.264539930555556 11.207139756944443  11.207139756944445 7.264539930555549  16.1865234375 4.358723958333331  C 21.165907118055557 1.4529079861111054  26.60373263888889 0  32.5 0  C 38.396267361111114 0  43.83409288194445 1.4529079861111054  48.8134765625 4.358723958333331  C 53.79286024305556 7.264539930555549  57.73546006944445 11.207139756944443  60.64127604166667 16.1865234375  Z " fill-rule="nonzero" fill="#ffffff" stroke="none" transform="matrix(1 0 0 1 152 1250 )" />
  </g>
</svg>