<?xml version="1.0" encoding="utf-8"?>
<svg version="1.1" xmlns:xlink="http://www.w3.org/1999/xlink" width="65px" height="60px" xmlns="http://www.w3.org/2000/svg">
  <g transform="matrix(1 0 0 1 -152 -1390 )">
    <path d="M 27.794270833333332 36.14991482112436  C 29.486979166666668 34.44633730834753  30.333333333333332 32.390687109596826  30.333333333333332 29.982964224872234  C 30.333333333333332 27.57524134014764  29.486979166666668 25.519591141396933  27.794270833333332 23.8160136286201  C 26.1015625 22.112436115843266  24.05902777777778 21.260647359454858  21.666666666666664 21.260647359454858  C 19.274305555555557 21.260647359454858  17.231770833333336 22.112436115843266  15.5390625 23.8160136286201  C 13.846354166666666 25.519591141396933  13 27.57524134014764  13 29.982964224872234  C 13 32.390687109596826  13.846354166666666 34.44633730834753  15.5390625 36.14991482112436  C 17.231770833333336 37.85349233390119  19.274305555555557 38.70528109028961  21.666666666666664 38.70528109028961  C 24.05902777777778 38.70528109028961  26.1015625 37.85349233390119  27.794270833333332 36.14991482112436  Z M 55.063802083333336 50.511073253833054  C 55.91015625 49.65928449744464  56.333333333333336 48.631459398069275  56.333333333333336 47.42759795570698  C 56.333333333333336 46.24645088018171  55.90451388888889 45.22430437251561  55.046875 44.36115843270869  C 54.189236111111114 43.49801249290176  53.173611111111114 43.066439522998294  52 43.066439522998294  C 50.82638888888889 43.066439522998294  49.81076388888889 43.49801249290176  48.953125 44.36115843270869  C 48.095486111111114 45.22430437251561  47.666666666666664 46.24645088018171  47.666666666666664 47.42759795570698  C 47.666666666666664 48.631459398069275  48.08984375 49.65928449744464  48.936197916666664 50.511073253833054  C 49.782552083333336 51.36286201022146  50.80381944444445 51.78875638841567  52 51.78875638841567  C 53.19618055555556 51.78875638841567  54.217447916666664 51.36286201022146  55.063802083333336 50.511073253833054  Z M 55.063802083333336 15.621805792163546  C 55.91015625 14.77001703577513  56.333333333333336 13.742191936399772  56.333333333333336 12.538330494037481  C 56.333333333333336 11.357183418512207  55.90451388888889 10.335036910846107  55.046875 9.471890971039183  C 54.189236111111114 8.608745031232253  53.173611111111114 8.17717206132879  52 8.17717206132879  C 50.82638888888889 8.17717206132879  49.81076388888889 8.608745031232253  48.953125 9.471890971039183  C 48.095486111111114 10.335036910846107  47.666666666666664 11.357183418512207  47.666666666666664 12.538330494037481  C 47.666666666666664 13.742191936399772  48.08984375 14.77001703577513  48.936197916666664 15.621805792163546  C 49.782552083333336 16.47359454855196  50.80381944444445 16.899488926746166  52 16.899488926746166  C 53.19618055555556 16.899488926746166  54.217447916666664 16.47359454855196  55.063802083333336 15.621805792163546  Z M 43.096354166666664 26.21805792163543  C 43.25434027777778 26.411130039750145  43.33333333333333 26.632595116411128  43.33333333333333 26.8824531516184  L 43.33333333333333 33.18568994889267  C 43.33333333333333 33.41283361726292  43.25434027777778 33.6342986939239  43.096354166666664 33.85008517887564  C 42.938368055555564 34.065871663827366  42.7578125 34.185122089721744  42.5546875 34.20783645655877  L 37.307291666666664 35.02555366269165  C 37.059027777777786 35.820556501987504  36.697916666666664 36.68370244179443  36.22395833333333 37.61499148211244  C 36.99131944444445 38.70528109028961  38.00694444444445 40.011357183418504  39.27083333333333 41.53321976149915  C 39.42881944444444 41.78307779670641  39.5078125 42.01022146507666  39.5078125 42.21465076660988  C 39.5078125 42.487223168654175  39.42881944444444 42.70300965360591  39.27083333333333 42.86201022146508  C 38.751736111111114 43.54344122657581  37.820746527777786 44.559909142532646  36.47786458333333 45.911413969335605  C 35.13498263888889 47.262918796138564  34.24913194444444 47.93867120954004  33.8203125 47.93867120954004  C 33.572048611111114 47.93867120954004  33.33506944444444 47.85917092561045  33.109375 47.700170357751276  L 29.216145833333332 44.63373083475298  C 28.38107638888889 45.065303804656445  27.512152777777782 45.417376490630325  26.609375 45.68994889267462  C 26.361111111111114 48.14310051107326  26.1015625 49.90346394094265  25.830729166666668 50.971039182282794  C 25.672743055555557 51.51618398637138  25.33420138888889 51.78875638841567  24.815104166666668 51.78875638841567  L 18.518229166666668 51.78875638841567  C 18.26996527777778 51.78875638841567  18.044270833333332 51.70357751277683  17.841145833333332 51.533219761499154  C 17.638020833333332 51.36286201022146  17.52517361111111 51.16411130039751  17.502604166666668 50.936967632027255  L 16.723958333333332 45.724020442930154  C 15.956597222222223 45.49687677455991  15.110243055555555 45.144804088586035  14.184895833333334 44.66780238500852  L 10.190104166666666 47.700170357751276  C 10.032118055555555 47.85917092561045  9.806423611111112 47.93867120954004  9.513020833333334 47.93867120954004  C 9.264756944444446 47.93867120954004  9.027777777777779 47.84781374219194  8.802083333333332 47.66609880749574  C 5.552083333333333 44.64508801817149  3.9270833333333335 42.82793867120954  3.9270833333333335 42.21465076660988  C 3.9270833333333335 42.01022146507666  4.006076388888889 41.794434980124926  4.1640625 41.56729131175469  C 4.389756944444445 41.24929017603634  4.852430555555555 40.64735945485519  5.552083333333333 39.76149914821124  C 6.251736111111112 38.87563884156729  6.782118055555557 38.18285065303804  7.143229166666667 37.68313458262351  C 6.6241319444444455 36.68370244179443  6.229166666666667 35.75241340147643  5.958333333333333 34.889267461669505  L 0.8125 34.07155025553663  C 0.5868055555555556 34.0488358886996  0.39496527777777785 33.94094264622374  0.23697916666666666 33.74787052810903  C 0.07899305555555554 33.55479840999432  0 33.333333333333336  0 33.08347529812606  L 0 26.78023850085179  C 0 26.55309483248154  0.07899305555555554 26.331629755820558  0.23697916666666666 26.115843270868822  C 0.39496527777777785 25.900056785917094  0.5755208333333334 25.780806360022712  0.7786458333333334 25.75809199318569  L 6.026041666666667 24.94037478705281  C 6.274305555555556 24.145371947756953  6.635416666666667 23.28222600795003  7.109375 22.350936967632023  C 6.342013888888889 21.260647359454858  5.326388888888889 19.954571266325946  4.0625 18.432708688245317  C 3.904513888888889 18.182850653038038  3.8255208333333335 17.955706984667803  3.8255208333333335 17.75127768313458  C 3.8255208333333335 17.47870528109029  3.904513888888889 17.251561612720042  4.0625 17.06984667802385  C 4.559027777777779 16.388415672913116  5.484375 15.377626348665526  6.838541666666667 14.037478705281089  C 8.192708333333334 12.697331061896644  9.084201388888891 12.027257240204431  9.513020833333334 12.027257240204431  C 9.761284722222223 12.027257240204431  9.99826388888889 12.106757524134013  10.223958333333334 12.265758091993188  L 14.1171875 15.33219761499148  C 14.884548611111112 14.92333901192504  15.753472222222223 14.559909142532652  16.723958333333332 14.241908006814308  C 16.972222222222225 11.788756388415676  17.231770833333332 10.039750141964785  17.502604166666668 8.99488926746167  C 17.660590277777782 8.449744463373083  17.999131944444446 8.17717206132879  18.518229166666668 8.17717206132879  L 24.815104166666668 8.17717206132879  C 25.063368055555557 8.17717206132879  25.2890625 8.262350936967636  25.4921875 8.432708688245318  C 25.6953125 8.603066439522994  25.80815972222222 8.801817149346958  25.830729166666668 9.028960817717206  L 26.609375 14.241908006814308  C 27.376736111111114 14.46905167518455  28.22309027777778 14.82112436115843  29.1484375 15.298126064735944  L 33.143229166666664 12.265758091993188  C 33.32378472222223 12.106757524134013  33.54947916666667 12.027257240204431  33.8203125 12.027257240204431  C 34.068576388888886 12.027257240204431  34.30555555555556 12.118114707552522  34.53125 12.299829642248724  C 37.78125 15.320840431572966  39.40625 17.137989778534923  39.40625 17.75127768313458  C 39.40625 17.932992617830774  39.32725694444444 18.148779102782502  39.169270833333336 18.39863713798978  C 38.8984375 18.76206700738216  38.42447916666667 19.375354911981823  37.74739583333333 20.238500851788757  C 37.0703125 21.101646791595684  36.5625 21.783077796706415  36.22395833333333 22.28279386712095  C 36.743055555555564 23.373083475298124  37.126736111111114 24.304372515616123  37.375 25.076660988074956  L 42.520833333333336 25.8603066439523  C 42.74652777777778 25.905735377626343  42.938368055555564 26.024985803520725  43.096354166666664 26.21805792163543  Z M 59.955729166666664 43.98637137989779  C 63.31857638888889 44.32708688245315  65.00000000000001 44.679159568427025  65 45.04258943781942  L 65 49.81260647359455  C 65.00000000000001 50.17603634298694  63.31857638888889 50.52810902896082  59.955729166666664 50.86882453151618  C 59.684895833333336 51.48211243611584  59.346354166666664 52.07268597387847  58.940104166666664 52.640545144804086  C 60.09114583333333 55.207268597387845  60.666666666666664 56.77455990914253  60.666666666666664 57.34241908006814  C 60.666666666666664 57.43327654741624  60.62152777777778 57.512776831345825  60.53125 57.5809199318569  C 57.77777777777778 59.19363997728563  56.37847222222222 60  56.333333333333336 60  C 56.152777777777786 60  55.633680555555564 59.466212379329924  54.776041666666664 58.39863713798978  C 53.91840277777778 57.331061896649636  53.33159722222222 56.5587734241908  53.015625 56.08177172061329  C 52.564236111111114 56.12720045428733  52.22569444444445 56.14991482112436  52 56.14991482112436  C 51.77430555555556 56.14991482112436  51.4357638888889 56.12720045428733  50.984375 56.08177172061329  C 50.66840277777778 56.5587734241908  50.08159722222223 57.331061896649636  49.223958333333336 58.39863713798978  C 48.36631944444445 59.466212379329924  47.84722222222223 60  47.666666666666664 60  C 47.62152777777778 60  46.22222222222222 59.19363997728563  43.46875 57.5809199318569  C 43.37847222222223 57.512776831345825  43.33333333333333 57.43327654741624  43.33333333333333 57.34241908006814  C 43.33333333333333 56.77455990914253  43.908854166666664 55.207268597387845  45.059895833333336 52.640545144804086  C 44.653645833333336 52.07268597387847  44.315104166666664 51.48211243611584  44.044270833333336 50.86882453151618  C 40.681423611111114 50.52810902896082  39 50.17603634298694  39 49.81260647359455  L 39 45.04258943781942  C 39 44.679159568427025  40.681423611111114 44.32708688245315  44.044270833333336 43.98637137989779  C 44.337673611111114 43.327654741624066  44.676215277777786 42.737081203861436  45.059895833333336 42.21465076660988  C 43.908854166666664 39.64792731402612  43.33333333333333 38.08063600227143  43.33333333333333 37.512776831345825  C 43.33333333333333 37.42191936399772  43.37847222222223 37.34241908006815  43.46875 37.274275979557075  C 43.55902777777778 37.22884724588302  43.953993055555564 37.00170357751278  44.653645833333336 36.592844974446336  C 45.353298611111114 36.1839863713799  46.01909722222223 35.797842135150475  46.651041666666664 35.43441226575809  C 47.282986111111114 35.0709823963657  47.62152777777778 34.889267461669505  47.666666666666664 34.889267461669505  C 47.84722222222223 34.889267461669505  48.36631944444445 35.41737649063032  49.223958333333336 36.47359454855196  C 50.08159722222223 37.52981260647359  50.66840277777778 38.29642248722317  50.984375 38.77342419080068  C 51.4357638888889 38.72799545712663  51.77430555555556 38.70528109028961  52 38.70528109028961  C 52.22569444444445 38.70528109028961  52.564236111111114 38.72799545712663  53.015625 38.77342419080068  C 54.16666666666668 37.16070414537194  55.20486111111112 35.888699602498576  56.130208333333336 34.95741056218058  L 56.333333333333336 34.889267461669505  C 56.42361111111112 34.889267461669505  57.82291666666668 35.68427030096536  60.53125 37.274275979557075  C 60.62152777777778 37.34241908006815  60.666666666666664 37.42191936399772  60.666666666666664 37.512776831345825  C 60.666666666666664 38.08063600227143  60.09114583333333 39.64792731402612  58.940104166666664 42.21465076660988  C 59.32378472222223 42.737081203861436  59.66232638888889 43.327654741624066  59.955729166666664 43.98637137989779  Z M 59.955729166666664 9.09710391822828  C 63.31857638888889 9.437819420783647  65.00000000000001 9.78989210675752  65 10.153321976149916  L 65 14.92333901192504  C 65.00000000000001 15.28676888131743  63.31857638888889 15.63884156729131  59.955729166666664 15.979557069846678  C 59.684895833333336 16.592844974446336  59.346354166666664 17.183418512208966  58.940104166666664 17.75127768313458  C 60.09114583333333 20.31800113571834  60.666666666666664 21.885292447473027  60.666666666666664 22.453151618398635  C 60.666666666666664 22.54400908574673  60.62152777777778 22.623509369676317  60.53125 22.691652470187393  C 57.77777777777778 24.304372515616123  56.37847222222222 25.110732538330495  56.333333333333336 25.110732538330495  C 56.152777777777786 25.110732538330495  55.633680555555564 24.576944917660416  54.776041666666664 23.509369676320272  C 53.91840277777778 22.44179443498012  53.33159722222222 21.669505962521292  53.015625 21.192504258943785  C 52.564236111111114 21.23793299261783  52.22569444444445 21.260647359454858  52 21.260647359454858  C 51.77430555555556 21.260647359454858  51.4357638888889 21.23793299261783  50.984375 21.192504258943785  C 50.66840277777778 21.669505962521292  50.08159722222223 22.44179443498012  49.223958333333336 23.509369676320272  C 48.36631944444445 24.576944917660416  47.84722222222223 25.110732538330495  47.666666666666664 25.110732538330495  C 47.62152777777778 25.110732538330495  46.22222222222222 24.304372515616123  43.46875 22.691652470187393  C 43.37847222222223 22.623509369676317  43.33333333333333 22.54400908574673  43.33333333333333 22.453151618398635  C 43.33333333333333 21.885292447473027  43.908854166666664 20.31800113571834  45.059895833333336 17.75127768313458  C 44.653645833333336 17.183418512208966  44.315104166666664 16.592844974446336  44.044270833333336 15.979557069846678  C 40.681423611111114 15.63884156729131  39 15.28676888131743  39 14.92333901192504  L 39 10.153321976149916  C 39 9.78989210675752  40.681423611111114 9.437819420783647  44.044270833333336 9.09710391822828  C 44.337673611111114 8.438387279954568  44.676215277777786 7.847813742191931  45.059895833333336 7.325383304940374  C 43.908854166666664 4.75865985235661  43.33333333333333 3.1913685406019243  43.33333333333333 2.6235093696763223  C 43.33333333333333 2.53265190232822  43.37847222222223 2.453151618398639  43.46875 2.3850085178875657  C 43.55902777777778 2.339579784213508  43.953993055555564 2.1124361158432725  44.653645833333336 1.7035775127768327  C 45.353298611111114 1.2947189097103928  46.01909722222223 0.9085746734809685  46.651041666666664 0.5451448040885865  C 47.282986111111114 0.18171493469619104  47.62152777777778 0  47.666666666666664 0  C 47.84722222222223 0  48.36631944444445 0.5281090289608148  49.223958333333336 1.584327086882451  C 50.08159722222223 2.6405451448040873  50.66840277777778 3.4071550255536653  50.984375 3.8841567291311785  C 51.4357638888889 3.8387279954571207  51.77430555555556 3.816013628620105  52 3.816013628620105  C 52.22569444444445 3.816013628620105  52.564236111111114 3.8387279954571207  53.015625 3.8841567291311785  C 54.16666666666668 2.2714366837024347  55.20486111111112 0.9994321408290707  56.130208333333336 0.0681431005110733  L 56.333333333333336 0  C 56.42361111111112 0  57.82291666666668 0.7950028392958508  60.53125 2.3850085178875657  C 60.62152777777778 2.453151618398639  60.666666666666664 2.53265190232822  60.666666666666664 2.6235093696763223  C 60.666666666666664 3.1913685406019243  60.09114583333333 4.75865985235661  58.940104166666664 7.325383304940374  C 59.32378472222223 7.847813742191931  59.66232638888889 8.438387279954568  59.955729166666664 9.09710391822828  Z " fill-rule="nonzero" fill="#ffffff" stroke="none" transform="matrix(1 0 0 1 152 1390 )" />
  </g>
</svg>